<svg id="earth-globe" xmlns="http://www.w3.org/2000/svg" width="60.211" height="60.211" viewBox="0 0 60.211 60.211">
  <g id="Group_21" data-name="Group 21">
    <path id="Path_56" data-name="Path 56" d="M30.105,0A30.105,30.105,0,1,0,60.211,30.105,30.106,30.106,0,0,0,30.105,0Zm4.5,3.416a26.876,26.876,0,0,1,9.463,3.511c-3.541-1.158-5.417.717-6.712,2.026-.7.709-1.154,1.144-1.6,1.144a3.411,3.411,0,0,1-2.543-.816,2.72,2.72,0,0,1-.642-1.889C32.565,5.626,33.649,3.834,34.6,3.416ZM3.011,30.105A27.085,27.085,0,0,1,15.165,7.523c.273-.022,1.067-.061,1.766,1.2,1.079,1.938,1.026,5.385-.105,6.957a1.35,1.35,0,0,1-1.5.651,7.042,7.042,0,0,0-5.883,1.718C6.936,20.136,5.27,23.7,5.27,25.149a2.4,2.4,0,0,0,.784,1.8c1.285,1.17,3.7.939,6.508.674a20.32,20.32,0,0,1,4.006-.135,24.272,24.272,0,0,0,.446,3.331c.354,1.965.721,4,.108,5.578-.725,1.873-.025,4.016.787,6.5a35.689,35.689,0,0,1,1.339,4.92,13.756,13.756,0,0,0-4.209-3.748c-5.154-2.575-10.382-8.475-12-13.327C3.038,30.524,3.011,30.318,3.011,30.105ZM30.105,57.2A27.115,27.115,0,0,1,4.645,39.284a29.562,29.562,0,0,0,9.045,7.472c1.606.8,3.155,2.84,4.285,4.329,1.05,1.38,1.8,2.363,2.8,2.363a1.771,1.771,0,0,0,.573-.1c.816-.275,1.229-1,1.229-2.17a28.688,28.688,0,0,0-1.811-9.224c-.632-1.933-1.179-3.6-.841-4.474.919-2.368.456-4.934.047-7.2a19.041,19.041,0,0,1-.405-3.187,2.4,2.4,0,0,0-.784-1.8c-1.287-1.171-3.709-.941-6.508-.674a21.494,21.494,0,0,1-3.9.155,10.568,10.568,0,0,1,3.245-4.614,3.889,3.889,0,0,1,3.149-.872,4.349,4.349,0,0,0,4.493-1.853c1.821-2.53,1.955-7.191.294-10.18a5.884,5.884,0,0,0-1.23-1.519,26.875,26.875,0,0,1,11.773-2.73c.262,0,.516.032.776.039a8.354,8.354,0,0,0-1.327,4.343,5.6,5.6,0,0,0,1.477,3.971,6.234,6.234,0,0,0,4.719,1.745,5.284,5.284,0,0,0,3.744-2.037c1.36-1.376,2.183-2.208,4.949-.715,3,1.623,4.323,1.756,5.61,1.477a27.2,27.2,0,0,1,3.875,5.373,9.418,9.418,0,0,1-8.1-.489c-6.309-3.155-11.3-1.841-14.062,3.684a11.941,11.941,0,0,0,.082,11.407,5.225,5.225,0,0,0,4.275,2.814c3.893,0,4.516.357,4.516,1.505a11.852,11.852,0,0,0,1.664,5.189,9.646,9.646,0,0,1,1.347,3.842,8.1,8.1,0,0,1-.366,1.973c-.351,1.312-.749,2.8.215,4.051a3.56,3.56,0,0,0,1.992,1.2A26.931,26.931,0,0,1,30.105,57.2Zm18.576-7.423a1.484,1.484,0,0,0-.513-.1,7.124,7.124,0,0,1-2.251-.275A5.291,5.291,0,0,1,46.2,47.91a10.547,10.547,0,0,0,.468-2.752A11.853,11.853,0,0,0,45,39.969a9.641,9.641,0,0,1-1.347-3.842c0-4.516-4.529-4.516-7.526-4.516-.522,0-1.193-.544-1.714-1.385a8.884,8.884,0,0,1,.05-8.479C35.19,20.3,37.4,15.872,44.485,19.41a12.387,12.387,0,0,0,10.334.671c.149-.045.26-.059.4-.1a26.936,26.936,0,0,1-6.538,29.794Z" fill="#ff4a52"/>
  </g>
</svg>
