<svg id="hotel" xmlns="http://www.w3.org/2000/svg" width="70.836" height="60.211" viewBox="0 0 70.836 60.211">
  <g id="Group_8" data-name="Group 8" transform="translate(6.642 34.04)">
    <g id="Group_7" data-name="Group 7">
      <path id="Path_48" data-name="Path 48" d="M57.952,284.876a1.756,1.756,0,0,0-1.162-.434l-.861.112-.391.39a1.783,1.783,0,0,0-.516,1.3v2.888H51.546v-2.888a1.768,1.768,0,0,0-1.771-1.8l-.861.112-.391.39a1.783,1.783,0,0,0-.516,1.3v10.008a1.817,1.817,0,0,0,.577,1.336,1.772,1.772,0,0,0,1.19.446l.8-.115.377-.328a1.749,1.749,0,0,0,.6-1.34v-3.669h3.476v3.669a1.811,1.811,0,0,0,.557,1.32l.7.464h.516l.81-.115.38-.345a1.765,1.765,0,0,0,.577-1.325V286.239A1.8,1.8,0,0,0,57.952,284.876Z" transform="translate(-48.008 -284.442)" fill="#ff4a52"/>
    </g>
  </g>
  <g id="Group_10" data-name="Group 10" transform="translate(19.557 34.039)">
    <g id="Group_9" data-name="Group 9">
      <path id="Path_49" data-name="Path 49" d="M152.074,286.629a5.569,5.569,0,0,0-4.662-2.195,5.647,5.647,0,0,0-4.684,2.209,7.505,7.505,0,0,0-1.373,4.584,7.428,7.428,0,0,0,1.38,4.577,6.028,6.028,0,0,0,9.335.009,7.315,7.315,0,0,0,1.411-4.587A7.407,7.407,0,0,0,152.074,286.629Zm-2.779,7.1a2.491,2.491,0,0,1-3.753.011,4.272,4.272,0,0,1-.647-2.509,4.211,4.211,0,0,1,.643-2.5,2.484,2.484,0,0,1,3.753,0,4.2,4.2,0,0,1,.658,2.5A4.249,4.249,0,0,1,149.294,293.728Z" transform="translate(-141.355 -284.434)" fill="#ff4a52"/>
    </g>
  </g>
  <g id="Group_12" data-name="Group 12" transform="translate(32.418 34.28)">
    <g id="Group_11" data-name="Group 11">
      <path id="Path_50" data-name="Path 50" d="M244.427,287.015l-.45-.4a1.811,1.811,0,0,0-1.217-.446h-6.772a1.727,1.727,0,0,0,0,3.452h1.681v8.126a1.793,1.793,0,0,0,.557,1.306l.7.464h.516l.8-.115.377-.328a1.737,1.737,0,0,0,.6-1.327v-8.126h1.556a1.727,1.727,0,0,0,1.217-.46,1.664,1.664,0,0,0,.577-1.266Z" transform="translate(-234.317 -286.173)" fill="#ff4a52"/>
    </g>
  </g>
  <g id="Group_14" data-name="Group 14" transform="translate(44.239 34.28)">
    <g id="Group_13" data-name="Group 13">
      <path id="Path_51" data-name="Path 51" d="M329.466,296.668l-.45-.4a1.816,1.816,0,0,0-1.221-.444h-4.5v-1.56h3.822a1.782,1.782,0,0,0,1.283-.516,1.714,1.714,0,0,0,.5-1.209l-.115-.894-.464-.4a1.807,1.807,0,0,0-1.207-.434h-3.822v-1.191h4.32a1.81,1.81,0,0,0,1.29-.54,1.712,1.712,0,0,0,.477-1.187l-.111-.884-.45-.4a1.8,1.8,0,0,0-1.207-.446h-5.182a2.6,2.6,0,0,0-2.034.89,2.746,2.746,0,0,0-.643,1.816v7.708a2.75,2.75,0,0,0,.654,1.815,2.607,2.607,0,0,0,2.023.877H327.8a1.755,1.755,0,0,0,1.269-.507,1.694,1.694,0,0,0,.516-1.22Z" transform="translate(-319.753 -286.172)" fill="#ff4a52"/>
    </g>
  </g>
  <g id="Group_16" data-name="Group 16" transform="translate(56.21 34.04)">
    <g id="Group_15" data-name="Group 15">
      <path id="Path_52" data-name="Path 52" d="M415.156,295.175l-.45-.4a1.823,1.823,0,0,0-1.221-.444h-3.666v-8.1a1.768,1.768,0,0,0-1.771-1.8l-.861.112-.391.39a1.783,1.783,0,0,0-.516,1.3V295.1a2.75,2.75,0,0,0,.654,1.815,2.605,2.605,0,0,0,2.022.876h4.528a1.774,1.774,0,0,0,1.269-.507,1.694,1.694,0,0,0,.516-1.22Z" transform="translate(-406.281 -284.44)" fill="#ff4a52"/>
    </g>
  </g>
  <g id="Group_18" data-name="Group 18" transform="translate(0 0)">
    <g id="Group_17" data-name="Group 17">
      <path id="Path_53" data-name="Path 53" d="M69.066,49.025a1.77,1.77,0,0,0,1.771-1.771V40.171a1.771,1.771,0,1,0-3.542,0v1.771H3.542V40.171a1.771,1.771,0,1,0-3.542,0v7.084a1.771,1.771,0,1,0,3.542,0V45.484h7.084V59.651H7.084A7.083,7.083,0,0,0,0,66.735V91.527a7.083,7.083,0,0,0,7.084,7.084H63.753a7.083,7.083,0,0,0,7.084-7.084V66.735a7.083,7.083,0,0,0-7.084-7.084H60.211V45.484h7.084v1.771A1.77,1.77,0,0,0,69.066,49.025Zm-54.9-3.542h42.5V59.651h-42.5ZM63.753,63.193a3.546,3.546,0,0,1,3.542,3.542V91.527a3.546,3.546,0,0,1-3.542,3.542H7.084a3.546,3.546,0,0,1-3.542-3.542V66.735a3.546,3.546,0,0,1,3.542-3.542Z" transform="translate(0 -38.4)" fill="#ff4a52"/>
    </g>
  </g>
</svg>
