<svg xmlns="http://www.w3.org/2000/svg" width="16.676" height="14.406" viewBox="0 0 16.676 14.406">
  <g id="https:_www.flaticon.com_free-icon_left-quotes-sign_39711_term_quote_page_1_position_4" data-name="https://www.flaticon.com/free-icon/left-quotes-sign_39711?term=quote&amp;page=1&amp;position=4" transform="translate(0 -34.571)">
    <g id="Group_22" data-name="Group 22" transform="translate(0 34.571)">
      <path id="Path_57" data-name="Path 57" d="M0,45.008a3.98,3.98,0,1,0,2.684-3.753c.893-5.124,4.889-8.428,1.185-5.708C-.234,38.562,0,44.886,0,45,0,45,0,45.006,0,45.008Z" transform="translate(0 -34.571)" fill="#fff"/>
      <path id="Path_58" data-name="Path 58" d="M266.064,45.008a3.98,3.98,0,1,0,2.684-3.753c.893-5.124,4.889-8.428,1.185-5.708-4.107,3.015-3.873,9.34-3.869,9.455C266.064,45,266.064,45.006,266.064,45.008Z" transform="translate(-257.328 -34.571)" fill="#fff"/>
    </g>
  </g>
</svg>
